<svg xmlns="http://www.w3.org/2000/svg" xmlns:xlink="http://www.w3.org/1999/xlink" contentStyleType="text/css" height="1760.9375px" preserveAspectRatio="none" style="width:1096px;height:1760px;background:#FFFFFF;" version="1.1" viewBox="0 0 1096 1760" width="1096.875px" zoomAndPan="magnify"><title>Use Case Diagram &#8212; AIBID Platform</title><defs/><g><text fill="#000000" font-family="Segoe UI" font-size="21.875" font-weight="bold" lengthAdjust="spacing" textLength="374.2142" x="358.2054" y="45.4803">Use Case Diagram &#8212; AIBID Platform</text><!--cluster AIBID ? AI Business Intelligence Platform--><g id="cluster_AIBID &#8212; AI Business Intelligence Platform"><rect fill="#F8FAFC" height="1671.875" rx="10.9375" ry="10.9375" style="stroke:#CBD5E1;stroke-width:2.0313;" width="760.9375" x="189.0625" y="80.658"/><text fill="#0F172A" font-family="Segoe UI" font-size="20.3125" font-weight="bold" lengthAdjust="spacing" textLength="400.8842" x="369.0891" y="111.9522">AIBID &#8212; AI Business Intelligence Platform</text></g><!--entity analyst--><g id="elem_analyst"><ellipse cx="76.5835" cy="572.8455" fill="#FDEEDF" rx="12.5" ry="12.5" style="stroke:#EA8A3E;stroke-width:0.7813;"/><path d="M76.5835,585.3455 L76.5835,627.533 M56.271,597.8455 L96.896,597.8455 M76.5835,627.533 L56.271,650.9705 M76.5835,627.533 L96.896,650.9705 " fill="none" style="stroke:#EA8A3E;stroke-width:0.7813;"/><text fill="#0F172A" font-family="Segoe UI" font-size="20.3125" lengthAdjust="spacing" textLength="112.542" x="20.3125" y="681.4835">Data Analyst</text></g><!--entity admin--><g id="elem_admin"><ellipse cx="76.9444" cy="1261.908" fill="#FDEEDF" rx="12.5" ry="12.5" style="stroke:#EA8A3E;stroke-width:0.7813;"/><path d="M76.9444,1274.408 L76.9444,1316.5955 M56.6319,1286.908 L97.2569,1286.908 M76.9444,1316.5955 L56.6319,1340.033 M76.9444,1316.5955 L97.2569,1340.033 " fill="none" style="stroke:#EA8A3E;stroke-width:0.7813;"/><text fill="#0F172A" font-family="Segoe UI" font-size="20.3125" lengthAdjust="spacing" textLength="122.6387" x="15.625" y="1370.546">Administrator</text></g><!--entity ai--><g id="elem_ai"><ellipse cx="1043.9827" cy="694.7205" fill="#E7F6EE" rx="12.5" ry="12.5" style="stroke:#EA8A3E;stroke-width:0.7813;"/><path d="M1043.9827,707.2205 L1043.9827,749.408 M1023.6702,719.7205 L1064.2952,719.7205 M1043.9827,749.408 L1023.6702,772.8455 M1043.9827,749.408 L1064.2952,772.8455 " fill="none" style="stroke:#EA8A3E;stroke-width:0.7813;"/><text fill="#0F172A" font-family="Segoe UI" font-size="20.3125" lengthAdjust="spacing" textLength="84.8404" x="1001.5625" y="803.3585">AI Engine</text></g><g id="elem_UC_login"><ellipse cx="352.1406" cy="984.9812" fill="#E8F1FB" rx="108.3906" ry="60.5733" style="stroke:#2563EB;stroke-width:1.875;"/><text fill="#0F172A" font-family="Segoe UI" font-size="20.3125" lengthAdjust="spacing" textLength="55.4031" x="324.439" y="970.5083">Log in</text><text fill="#0F172A" font-family="Segoe UI" font-size="20.3125" lengthAdjust="spacing" textLength="115.4083" x="294.4364" y="1010.0255">(JWT + MFA)</text></g><g id="elem_UC_dash"><ellipse cx="352.3388" cy="1134.9812" fill="#E8F1FB" rx="121.87" ry="60.5733" style="stroke:#2563EB;stroke-width:1.875;"/><text fill="#0F172A" font-family="Segoe UI" font-size="20.3125" lengthAdjust="spacing" textLength="134.4711" x="285.1032" y="1120.5083">View Real-time</text><text fill="#0F172A" font-family="Segoe UI" font-size="20.3125" lengthAdjust="spacing" textLength="97.8928" x="303.3924" y="1160.0255">Dashboard</text></g><g id="elem_UC_ai"><ellipse cx="352.2169" cy="563.2883" fill="#E8F1FB" rx="126.4357" ry="32.6304" style="stroke:#2563EB;stroke-width:1.875;"/><text fill="#0F172A" font-family="Segoe UI" font-size="20.3125" lengthAdjust="spacing" textLength="140.9279" x="281.753" y="568.574">Ask AI Assistant</text></g><g id="elem_UC_voice"><ellipse cx="352.593" cy="469.5383" fill="#E8F1FB" rx="131.4992" ry="32.6304" style="stroke:#2563EB;stroke-width:1.875;"/><text fill="#0F172A" font-family="Segoe UI" font-size="20.3125" lengthAdjust="spacing" textLength="148.0888" x="278.5485" y="474.824">Use Voice Query</text></g><g id="elem_UC_upload"><ellipse cx="352.5736" cy="684.9812" fill="#E8F1FB" rx="140.8549" ry="60.5733" style="stroke:#2563EB;stroke-width:1.875;"/><text fill="#0F172A" font-family="Segoe UI" font-size="20.3125" lengthAdjust="spacing" textLength="161.3197" x="271.9137" y="670.5083">Upload &amp; Analyse</text><text fill="#0F172A" font-family="Segoe UI" font-size="20.3125" lengthAdjust="spacing" textLength="67.9199" x="318.6137" y="710.0255">Dataset</text></g><g id="elem_UC_validate"><ellipse cx="352.1668" cy="834.9812" fill="#E8F1FB" rx="95.1356" ry="60.5733" style="stroke:#2563EB;stroke-width:1.875;"/><text fill="#0F172A" font-family="Segoe UI" font-size="20.3125" lengthAdjust="spacing" textLength="96.6629" x="303.8354" y="820.5083">Validate AI</text><text fill="#0F172A" font-family="Segoe UI" font-size="20.3125" lengthAdjust="spacing" textLength="69.3977" x="317.468" y="860.0255">Insights</text></g><g id="elem_UC_reports"><ellipse cx="352.2462" cy="197.4812" fill="#E8F1FB" rx="120.2149" ry="60.5733" style="stroke:#2563EB;stroke-width:1.875;"/><text fill="#0F172A" font-family="Segoe UI" font-size="20.3125" lengthAdjust="spacing" textLength="103.3974" x="300.5475" y="183.0083">Generate &amp;</text><text fill="#0F172A" font-family="Segoe UI" font-size="20.3125" lengthAdjust="spacing" textLength="132.1304" x="286.1809" y="222.5255">Export Reports</text></g><g id="elem_UC_crm"><ellipse cx="352.6567" cy="347.4812" fill="#E8F1FB" rx="151.0942" ry="60.5733" style="stroke:#2563EB;stroke-width:1.875;"/><text fill="#0F172A" font-family="Segoe UI" font-size="20.3125" lengthAdjust="spacing" textLength="161.0321" x="272.1406" y="333.0083">Manage Contacts,</text><text fill="#0F172A" font-family="Segoe UI" font-size="20.3125" lengthAdjust="spacing" textLength="175.8003" x="264.7565" y="372.5255">Deals &amp; Campaigns</text></g><g id="elem_UC_users"><ellipse cx="352.0469" cy="1528.7312" fill="#E8F1FB" rx="116.8906" ry="60.5733" style="stroke:#2563EB;stroke-width:1.875;"/><text fill="#0F172A" font-family="Segoe UI" font-size="20.3125" lengthAdjust="spacing" textLength="127.4292" x="288.3323" y="1514.2583">Manage Users</text><text fill="#0F172A" font-family="Segoe UI" font-size="20.3125" lengthAdjust="spacing" textLength="70.0325" x="317.0306" y="1553.7755">&amp; Roles</text></g><g id="elem_UC_ds"><ellipse cx="352.6498" cy="1678.7312" fill="#E8F1FB" rx="109.681" ry="60.5733" style="stroke:#2563EB;stroke-width:1.875;"/><text fill="#0F172A" font-family="Segoe UI" font-size="20.3125" lengthAdjust="spacing" textLength="88.3911" x="308.4542" y="1664.2583">Configure</text><text fill="#0F172A" font-family="Segoe UI" font-size="20.3125" lengthAdjust="spacing" textLength="117.2333" x="294.0331" y="1703.7755">Data Sources</text></g><g id="elem_UC_audit"><ellipse cx="352.3067" cy="1257.0383" fill="#E8F1FB" rx="128.8692" ry="32.6304" style="stroke:#2563EB;stroke-width:1.875;"/><text fill="#0F172A" font-family="Segoe UI" font-size="20.3125" lengthAdjust="spacing" textLength="144.3695" x="280.122" y="1262.324">View Audit Logs</text></g><g id="elem_UC_health"><ellipse cx="352.0327" cy="1378.7312" fill="#E8F1FB" rx="112.9702" ry="60.5733" style="stroke:#2563EB;stroke-width:1.875;"/><text fill="#0F172A" font-family="Segoe UI" font-size="20.3125" lengthAdjust="spacing" textLength="96.4745" x="303.7955" y="1364.2583">Monitor AI</text><text fill="#0F172A" font-family="Segoe UI" font-size="20.3125" lengthAdjust="spacing" textLength="121.8849" x="291.0903" y="1403.7755">Model Health</text></g><g id="elem_UC_gen"><ellipse cx="799.9745" cy="650.6062" fill="#E8F1FB" rx="137.4745" ry="60.5733" style="stroke:#2563EB;stroke-width:1.875;"/><text fill="#0F172A" font-family="Segoe UI" font-size="20.3125" lengthAdjust="spacing" textLength="156.5392" x="721.7049" y="636.1333">Generate Insights</text><text fill="#0F172A" font-family="Segoe UI" font-size="20.3125" lengthAdjust="spacing" textLength="142.4156" x="728.7667" y="675.6505">&amp; Visualisations</text></g><polygon fill="#64748B" points="243.4719,949.7582,233.8509,937.7476,236.5321,946.17,228.1098,948.8512,243.4719,949.7582" style="stroke:#64748B;stroke-width:1.5625;"/><path d="M89.374,692.8574 C103.0902,755.896 131.9095,849.5166 189.0625,910.3455 C204.2147,926.4722 215.1904,935.1353 235.1442,945.4524 " fill="none" style="stroke:#64748B;stroke-width:1.875;"/><polygon fill="#64748B" points="230.3862,1094.6843,221.5506,1082.0848,223.6893,1090.6609,215.1132,1092.7997,230.3862,1094.6843" style="stroke:#64748B;stroke-width:1.5625;"/><path d="M78.087,692.6954 C81.4748,785.4085 100.5227,953.7867 189.0625,1060.3455 C200.4352,1074.0326 206.8215,1080.5269 222.35,1089.8563 " fill="none" style="stroke:#64748B;stroke-width:1.875;"/><polygon fill="#64748B" points="225.6391,592.1563,210.5357,589.2063,218.0241,593.9019,213.3286,601.3903,225.6391,592.1563" style="stroke:#64748B;stroke-width:1.5625;"/><path d="M139.3144,611.9442 C164.9067,606.0778 186.4986,601.1284 216.5011,594.251 " fill="none" style="stroke:#64748B;stroke-width:1.875;"/><polygon fill="#64748B" points="220.7979,501.0628,205.4151,500.6324,213.5728,504.0349,210.1704,512.1926,220.7979,501.0628" style="stroke:#64748B;stroke-width:1.5625;"/><path d="M135.1069,559.1857 C151.226,543.4366 169.6961,527.9482 189.0625,516.5955 C199.0237,510.7561 201.0909,509.1693 212.1278,504.6293 " fill="none" style="stroke:#64748B;stroke-width:1.875;"/><polygon fill="#64748B" points="211.2504,654.9605,198.8398,645.8614,203.6168,653.2982,196.1801,658.0752,211.2504,654.9605" style="stroke:#64748B;stroke-width:1.5625;"/><path d="M139.3144,639.2954 C160.8245,643.9795 176.8036,647.4592 202.0901,652.9657 " fill="none" style="stroke:#64748B;stroke-width:1.875;"/><polygon fill="#64748B" points="256.8948,800.391,246.8143,788.7634,249.8209,797.0752,241.5091,800.0818,256.8948,800.391" style="stroke:#64748B;stroke-width:1.5625;"/><path d="M123.7453,692.8761 C142.0644,716.3261 164.6374,741.4887 189.0625,760.3455 C209.3954,776.0429 225.0545,785.4665 248.4061,796.4121 " fill="none" style="stroke:#64748B;stroke-width:1.875;"/><polygon fill="#64748B" points="231.8653,238.5922,216.5734,240.3167,225.1267,242.5452,222.8982,251.0985,231.8653,238.5922" style="stroke:#64748B;stroke-width:1.5625;"/><path d="M83.1097,558.9283 C92.1676,481.455 117.6263,354.2165 189.0625,272.8455 C201.007,259.2397 207.8511,252.6794 223.7789,243.3358 " fill="none" style="stroke:#64748B;stroke-width:1.875;"/><polygon fill="#64748B" points="205.6563,409.0467,190.6428,412.4245,199.3877,413.7093,198.1029,422.4543,205.6563,409.0467" style="stroke:#64748B;stroke-width:1.5625;"/><path d="M101.7059,559.4932 C119.9345,516.0002 148.8809,460.4724 189.0625,422.8455 C194.2583,417.98 192.3034,418.9786 198.134,414.6418 " fill="none" style="stroke:#64748B;stroke-width:1.875;"/><polygon fill="#64748B" points="243.5362,1021.6122,228.1737,1022.5108,236.5946,1025.1966,233.9088,1033.6175,243.5362,1021.6122" style="stroke:#64748B;stroke-width:1.5625;"/><path d="M92.9669,1248.4929 C108.5262,1192.2153 138.0054,1112.6138 189.0625,1060.3455 C204.4169,1044.6268 215.3637,1036.1594 235.2062,1025.9135 " fill="none" style="stroke:#64748B;stroke-width:1.875;"/><polygon fill="#64748B" points="235.1148,1483.574,225.6551,1471.436,228.2236,1479.8934,219.7662,1482.4619,235.1148,1483.574" style="stroke:#64748B;stroke-width:1.5625;"/><path d="M121.2375,1381.4855 C139.8733,1406.5556 163.3181,1433.8732 189.0625,1454.0955 C203.0568,1465.088 210.6538,1470.5095 226.8454,1479.1573 " fill="none" style="stroke:#64748B;stroke-width:1.875;"/><polygon fill="#64748B" points="242.5661,1643.1384,232.9889,1631.0929,235.6394,1639.5249,227.2074,1642.1755,242.5661,1643.1384" style="stroke:#64748B;stroke-width:1.5625;"/><path d="M88.8305,1381.7936 C102.2282,1445.8691 130.894,1541.8434 189.0625,1604.0955 C203.9589,1620.0377 214.6035,1628.5511 234.2541,1638.8023 " fill="none" style="stroke:#64748B;stroke-width:1.875;"/><polygon fill="#64748B" points="222.9417,1284.3268,207.8887,1281.1297,215.2991,1285.9473,210.4814,1293.3578,222.9417,1284.3268" style="stroke:#64748B;stroke-width:1.5625;"/><path d="M144.1275,1301.0382 C167.9257,1295.9921 186.4901,1292.0558 213.7706,1286.2714 " fill="none" style="stroke:#64748B;stroke-width:1.875;"/><polygon fill="#64748B" points="238.5781,1352.7325,226.318,1343.4317,230.9727,1350.9456,223.4589,1355.6004,238.5781,1352.7325" style="stroke:#64748B;stroke-width:1.5625;"/><path d="M144.1275,1330.5407 C172.4962,1337.2061 197.3334,1343.0418 229.4517,1350.5882 " fill="none" style="stroke:#64748B;stroke-width:1.875;"/><polygon fill="#64748B" points="230.0483,1186.0229,214.6946,1187.0617,223.1396,1189.6705,220.5308,1198.1156,230.0483,1186.0229" style="stroke:#64748B;stroke-width:1.5625;"/><path d="M142.0107,1248.1936 C156.7229,1234.7183 172.8374,1221.3348 189.0625,1210.3455 C201.8746,1201.6677 207.5607,1197.8959 221.7579,1190.4001 " fill="none" style="stroke:#64748B;stroke-width:1.875;"/><polygon fill="#64748B" points="662.469,619.3601,650.0365,610.291,654.8315,617.7162,647.4063,622.5112,662.469,619.3601" style="stroke:#64748B;stroke-width:1.5625;"/><path d="M479.1097,584.4591 C527.6918,592.9515 583.7252,603.1734 634.375,613.4705 C643.5372,615.3331 643.8073,615.3434 653.3039,617.3874 " fill="none" style="stroke:#64748B;stroke-width:1.875;stroke-dasharray:7.0,7.0;"/><text fill="#334155" font-family="Segoe UI" font-size="20.3125" lengthAdjust="spacing" textLength="85.3462" x="540.625" y="580.7022">&#171;include&#187;</text><polygon fill="#64748B" points="716.7215,589.7777,708.4848,576.7788,710.2201,585.4456,701.5533,587.1809,716.7215,589.7777" style="stroke:#64748B;stroke-width:1.5625;"/><path d="M483.9473,494.471 C532.3567,506.0726 587.0101,522.0779 634.375,543.158 C662.555,555.6996 683.5126,567.649 708.9199,584.5791 " fill="none" style="stroke:#64748B;stroke-width:1.875;stroke-dasharray:7.0,7.0;"/><text fill="#334155" font-family="Segoe UI" font-size="20.3125" lengthAdjust="spacing" textLength="85.3462" x="540.625" y="494.7647">&#171;include&#187;</text><polygon fill="#64748B" points="661.7844,661.5377,647.2819,656.3905,653.9952,662.14,648.2456,668.8533,661.7844,661.5377" style="stroke:#64748B;stroke-width:1.5625;"/><path d="M493.3391,674.5633 C547.0643,670.4088 598.9772,666.3945 652.4373,662.2605 " fill="none" style="stroke:#64748B;stroke-width:1.875;stroke-dasharray:7.0,7.0;"/><text fill="#334155" font-family="Segoe UI" font-size="20.3125" lengthAdjust="spacing" textLength="85.3462" x="540.625" y="651.0147">&#171;include&#187;</text><polygon fill="#64748B" points="938.0454,705.9181,948.7562,716.9678,945.2926,708.8358,953.4245,705.3722,938.0454,705.9181" style="stroke:#64748B;stroke-width:1.5625;"/><path d="M946.742,709.4194 C967.1081,717.6187 978.148,722.0633 994.8631,728.7928 " fill="none" style="stroke:#64748B;stroke-width:1.875;"/><polygon fill="#64748B" points="448.1657,823.3624,462.9041,827.7891,455.9158,822.3772,461.3277,815.3889,448.1657,823.3624" style="stroke:#64748B;stroke-width:1.5625;"/><path d="M457.4658,822.1801 C606.7586,803.2008 882.875,768.0986 995.1532,753.8248 " fill="none" style="stroke:#64748B;stroke-width:1.875;"/><!--SRC=[VLJHRjCm57ttLzmLgMo2bJUGK5KfQpieeX9ihBnKGdV9RMBXs9Nj3AO9YO_W2_aIhfCuJJEqFhIvn-VMn-TSvqJgL5KPWI-efCc-AfKusLlCImI5zwRou4hog54esddm1gpC2m-Pj9HwQRJmqYk26qSmH_vQICmjbl3tznz8LXUh1NnIw7V6ba9Wwes5qG8zGg9HtJi_0dI0pNDSJx9IQkcyHIuRGa2wvHKiTIurDKiIdYtVNBvUBeK8ab3dB6VKRDs8W8lACTqvM6bFIicST4gThX4y205GEKh30KOVJGvIR_NfXwzVu0MiBvEpUgUR-JTbUDy-ToFf1rmHgdClIzhg1RhYrg3DOaV6GByXST-3eiGvFY1g7tae-wpWviP85lcv8diVINS1EkBjbS4CngsRjG3FAztVLZNXI34gcQ4dLh7LA-r2cgxRe5tiDxmZJJOqZBTw-NDlhES3Xv-kopPblsdDaUOy4KPxJiszP65iacEbSoptA7FTTQTXCXwtiWNMRVKOheoYZbm5jC_c7NOohsnxTBWsbKqF_CmzIYkfCkc1G-v8690Z2KRBC6h1ehN9IC5xLk-Bs53KbVYlIz7I87qZNSMEEWmNfTkEfq_y4k8vdFCdteEw4DWLiyEu3S1weWOOJyy0QKPb0BRJCAJ6q0TuZ7K0rtb5yVsR2gUSi87YSA6RTuKxQmyNo8EZzQ4csoCe6zHDKaTGcyLnMx0eQhmkq586hy2n8YhXbWgyapmcZQhQFPXCPcqqy1Qcq_QjE9k9QEMJZCRN9oa1dB8QJgfdUOJ-0G00]--></g></svg>